{"title":"Daawat e Ishq (2014) DvDScr x264 [DTRC] {GreatPalash}","uid":11058544,"size":983542302,"categoryP":"video","categoryS":"movies","magnet":"?xt=urn:btih:face14ae16e23a71d7f25ff83893106271cdbf12&amp;dn=Daawat+e+Ishq+%282014%29+DvDScr+x264+%5BDTRC%5D+%7BGreatPalash%7D&amp;tr=udp%3A%2F%2Ftracker.openbittorrent.com%3A80&amp;tr=udp%3A%2F%2Fopen.demonii.com%3A1337&amp;tr=udp%3A%2F%2Ftracker.coppersurfer.tk%3A6969&amp;tr=udp%3A%2F%2Fexodus.desync.com%3A6969","seeders":0,"leechers":0,"uploader":"Palash995","files":-1,"time":1411145908,"description":"-=ENJOY 1st ON NET=-\n &lt;a href=&quot;\nhttp://allmixposts.com/wp-content/uploads/2014/09/daawat_1.jpg&quot; rel=&quot;nofollow&quot; target=&quot;_NEW&quot;&gt;\nhttp://allmixposts.com/wp-content/uploads/2014/09/daawat_1.jpg&lt;/a&gt;\n\nGeneral\nComplete name                            : Daawat e Ishq (2014) Hindi Movie DvDScr x264  [DTRC] {GreatPalash}.mp4\nFormat                                   : MPEG-4\nFormat profile                           : Base Media\nCodec ID                                 : isom\nFile size                                : 938 MiB\nDuration                                 : 1h 36mn\nOverall bit rate mode                    : Variable\nOverall bit rate                         : 1 357 Kbps\nEncoded date                             : UTC 2014-09-19 10:37:41\nTagged date                              : UTC 2014-09-19 10:37:41\nWriting application                      : Lavf51.12.1\n\nVideo\nID                                       : 1\nFormat                                   : MPEG-4 Visual\nFormat profile                           : Simple@L1\nFormat settings, BVOP                    : No\nFormat settings, QPel                    : No\nFormat settings, GMC                     : No warppoints\nFormat settings, Matrix                  : Default (H.263)\nCodec ID                                 : 20\nDuration                                 : 1h 36mn\nBit rate                                 : 1 200 Kbps\nWidth                                    : 704 pixels\nHeight                                   : 576 pixels\nDisplay aspect ratio                     : 16:9\nFrame rate mode                          : Constant\nFrame rate                               : 25.000 fps\nStandard                                 : PAL\nColor space                              : YUV\nChroma subsampling                       : 4:2:0\nBit depth                                : 8 bits\nScan type                                : Progressive\nCompression mode                         : Lossy\nBits/(Pixel*Frame)                       : 0.118\nStream size                              : 830 MiB (88%)\nWriting library                          : Lavc51.40.4\nEncoded date                             : UTC 2014-09-19 10:37:41\nTagged date                              : UTC 2014-09-19 10:37:41\n\nAudio\nID                                       : 2\nFormat                                   : AAC\nFormat/Info                              : Advanced Audio Codec\nFormat profile                           : LC\nCodec ID                                 : 40\nDuration                                 : 1h 36mn\nBit rate mode                            : Variable\nBit rate                                 : 152 Kbps\nChannel(s)                               : 2 channels\nChannel positions                        : Front: L R\nSampling rate                            : 44.1 KHz\nCompression mode                         : Lossy\nStream size                              : 105 MiB (11%)\nEncoded date                             : UTC 2014-09-19 10:37:41\nTagged date                              : UTC 2014-09-19 10:37:41","torrent":{"xt":"urn:btih:face14ae16e23a71d7f25ff83893106271cdbf12","amp;dn":"Daawat+e+Ishq+%282014%29+DvDScr+x264+%5BDTRC%5D+%7BGreatPalash%7D","amp;tr":["udp%3A%2F%2Ftracker.openbittorrent.com%3A80","udp%3A%2F%2Fopen.demonii.com%3A1337","udp%3A%2F%2Ftracker.coppersurfer.tk%3A6969","udp%3A%2F%2Fexodus.desync.com%3A6969"],"infoHash":"face14ae16e23a71d7f25ff83893106271cdbf12","infoHashBuffer":{"type":"Buffer","data":[250,206,20,174,22,226,58,113,215,242,95,248,56,147,16,98,113,205,191,18]},"announce":[],"urlList":[]}}